<?xml version="1.0" encoding="utf-8"?>
<!-- Generator: Adobe Illustrator 19.0.0, SVG Export Plug-In . SVG Version: 6.00 Build 0)  -->
<svg version="1.1" id="Layer_1" xmlns="http://www.w3.org/2000/svg" xmlns:xlink="http://www.w3.org/1999/xlink" x="0px" y="0px"
	 viewBox="-453 248 52 33.6" style="enable-background:new -453 248 52 33.6;" xml:space="preserve">
<style type="text/css">
	.st0{fill:#FFFFFF;}
</style>
<g>
	<path class="st0" d="M-409.8,255.2c0.4-0.4,0.5-1,0.1-1.4c-0.4-0.4-1-0.5-1.4-0.1L-427,266l-15.9-12.3c0,0-0.1-0.1-0.1-0.1
		c-0.5-0.3-1.1-0.2-1.4,0.3s-0.2,1.1,0.3,1.4l11.6,8.9l-11.6,8.5c-0.4,0.3-0.5,1-0.2,1.4c0.3,0.4,1,0.5,1.4,0.2l12-8.8l3.3,2.6
		c0.4,0.3,0.9,0.3,1.2,0l3.8-3l11.4,8.8c0,0,0.1,0.1,0.1,0.1c0.5,0.3,1.1,0.2,1.4-0.3c0.3-0.5,0.2-1.1-0.3-1.4l-11-8.5L-409.8,255.2
		C-409.9,255.3-409.8,255.2-409.8,255.2z"/>
	<path class="st0" d="M-405,248.5h-44c-1.7,0-3,1.3-3,3v26c0,1.7,1.3,3,3,3h44c1.7,0,3-1.3,3-3v-26
		C-402,249.8-403.3,248.5-405,248.5z M-404,277.5c0,0.6-0.4,1-1,1h-44c-0.6,0-1-0.4-1-1v-26c0-0.6,0.4-1,1-1h44c0.6,0,1,0.4,1,1
		V277.5z"/>
</g>
</svg>
