<?xml version="1.0" encoding="utf-8"?>
<!-- Generator: Adobe Illustrator 19.0.0, SVG Export Plug-In . SVG Version: 6.00 Build 0)  -->
<svg version="1.1" id="Layer_1" xmlns="http://www.w3.org/2000/svg" xmlns:xlink="http://www.w3.org/1999/xlink" x="0px" y="0px"
	 viewBox="-459.7 251.2 58.3 75" style="enable-background:new -459.7 251.2 58.3 75;" xml:space="preserve">
<style type="text/css">
	.st0{fill:#FFFFFF;}
</style>
<path class="st0" d="M-453.5,259c1-1.4,2.3-2.6,3.8-3.5c0.5-0.3,1.1-0.6,1.7-0.8l5.2-1.6c1.9-0.6,3.9,0.2,4.9,1.9l6.3,11
	c1.2,2.1,0.9,4.6-0.8,5.6l-5.6,3.3c-3,1.7-3.2,7.3-0.5,12l5.9,10.2c1.4,2.8,3.9,4.9,6.9,5.9c1.2,0.4,2.5,0.3,3.7-0.3
	c0,0,0.1,0,0.1-0.1l5.5-3.2c0.7-0.4,1.6-0.5,2.4-0.3c1.2,0.4,2.3,1.2,2.9,2.4l6.3,11c1,1.7,0.7,3.9-0.8,5.2l-3.9,3.7
	c0,0-0.1,0-0.1,0.1c-0.5,0.4-1,0.7-1.5,1.1c-3.3,1.8-7.2,2.1-10.8,1c-9.1-2.4-19.2-11.7-26.3-24.1
	C-457.4,283.4-459.2,267.1-453.5,259z M-434,269c0.1-0.5,0-1-0.3-1.4l-6.3-11c-0.3-0.5-0.8-0.7-1.3-0.5l-5.1,1.6
	c-0.4,0.2-0.8,0.3-1.1,0.5c-8.2,4.8-7.1,23,2.5,39.7c6.8,11.8,16.1,20.4,24.5,22.7c2.8,0.9,5.8,0.7,8.4-0.7c0.4-0.2,0.7-0.5,1.1-0.7
	l3.8-3.6c0.4-0.4,0.5-1,0.2-1.5l-6.3-11c-0.2-0.5-0.6-0.8-1.1-0.9l-5.6,3.3c0,0-0.1,0-0.1,0.1c-1.8,1-3.9,1.2-5.9,0.6
	c-3.8-1.2-6.9-3.8-8.7-7.3l-5.9-10.2c-3.7-6.4-3-13.5,1.6-16.2L-434,269z"/>
</svg>
