<?xml version="1.0" encoding="utf-8"?>
<!-- Generator: Adobe Illustrator 19.0.0, SVG Export Plug-In . SVG Version: 6.00 Build 0)  -->
<svg version="1.1" id="Layer_1" xmlns="http://www.w3.org/2000/svg" xmlns:xlink="http://www.w3.org/1999/xlink" x="0px" y="0px"
	 viewBox="-223 -40 25.8 25" style="enable-background:new -223 -40 25.8 25;" xml:space="preserve">
<style type="text/css">
	.st0{fill:#9E1F63;}
</style>
<g>
	<path class="st0" d="M-198.4-40h-18.3c-0.2,0-0.4,0.2-0.4,0.4v18.3c0,0.2,0.2,0.4,0.4,0.4h18.3c0.2,0,0.4-0.2,0.4-0.4v-18.3
		C-198-39.8-198.2-40-198.4-40z M-204.8-39.2h6v6.6h-4.2v-3.1c0-0.2-0.2-0.4-0.4-0.4h-1.4V-39.2z M-216.2-39.2h5.1v3.6h-5.1V-39.2z
		 M-216.2-34.8h5.5c0.2,0,0.4-0.2,0.4-0.4v-4h4.8v3.5c0,0.2,0.2,0.4,0.4,0.4h1.4v3.1c0,0.2,0.2,0.4,0.4,0.4h4.6v2.6h-7v0
		c-0.2,0-0.4,0.2-0.4,0.4v4.8h-3.5v-3.4c0-0.2-0.2-0.4-0.4-0.4h-6.2V-34.8z M-203.1-21.7h-13.2V-27h5.8v3.4c0,0.2,0.2,0.4,0.4,0.4h7
		V-21.7z M-198.8-21.7h-3.5v0v-1.9c0-0.2-0.2-0.4-0.4-0.4h-2.7v-4.4h6.6V-21.7z"/>
	<path class="st0" d="M-198.9-17.5l-2.3-1.9c-0.2-0.1-0.4-0.1-0.6,0.1c-0.1,0.2-0.1,0.4,0.1,0.6l1.4,1.2h-20.1v-19.9l1.2,1.4
		c0.1,0.1,0.2,0.1,0.3,0.1c0.1,0,0.2,0,0.2-0.1c0.2-0.1,0.2-0.4,0.1-0.6l-1.9-2.3c0,0,0,0,0,0c-0.1-0.1-0.2-0.1-0.3-0.1
		s-0.2,0.1-0.3,0.1c0,0,0,0,0,0l-1.9,2.3c-0.1,0.2-0.1,0.4,0.1,0.5c0.2,0.1,0.4,0.1,0.6-0.1l1.2-1.4v20.3c0,0.2,0.2,0.4,0.4,0.4
		h20.5l-1.4,1.2c-0.2,0.1-0.2,0.4-0.1,0.6c0.1,0.1,0.2,0.1,0.3,0.1c0.1,0,0.2,0,0.2-0.1l2.3-1.9c0.1-0.1,0.1-0.2,0.1-0.3
		C-198.8-17.3-198.8-17.5-198.9-17.5z"/>
</g>
</svg>
