<?xml version="1.0" encoding="utf-8"?>
<!-- Generator: Adobe Illustrator 19.0.0, SVG Export Plug-In . SVG Version: 6.00 Build 0)  -->
<svg version="1.1" id="Layer_1" xmlns="http://www.w3.org/2000/svg" xmlns:xlink="http://www.w3.org/1999/xlink" x="0px" y="0px"
	 viewBox="-463 261 32 33" style="enable-background:new -463 261 32 33;" xml:space="preserve">
<style type="text/css">
	.st0{fill:#9E1F63;}
</style>
<g>
	<path class="st0" d="M-447,261.5c-6.1,0-11.1,5-11.1,11.1c0,5.9,10.1,19.1,10.5,19.6c0.1,0.2,0.4,0.3,0.6,0.3s0.5-0.1,0.6-0.3
		c0.4-0.6,10.5-13.7,10.5-19.6C-435.9,266.5-440.9,261.5-447,261.5z M-441.1,272.6c0,3.3-2.7,5.9-5.9,5.9c-3.3,0-5.9-2.7-5.9-5.9
		c0-3.3,2.7-5.9,5.9-5.9C-443.7,266.7-441.1,269.3-441.1,272.6z"/>
</g>
</svg>
