<?xml version="1.0" encoding="utf-8"?>
<!-- Generator: Adobe Illustrator 19.0.0, SVG Export Plug-In . SVG Version: 6.00 Build 0)  -->
<svg version="1.1" id="Layer_1" xmlns="http://www.w3.org/2000/svg" xmlns:xlink="http://www.w3.org/1999/xlink" x="0px" y="0px"
	 viewBox="-429 218 79.3 96" style="enable-background:new -429 218 79.3 96;" xml:space="preserve">
<style type="text/css">
	.st0{fill:#9E1F63;}
</style>
<g>
	<path class="st0" d="M-352.9,259c-0.1-1-1-1.7-2.1-1.6c-1,0.1-1.7,1-1.6,2.1c1,8.2,1.6,17.5-1.5,23.5c-0.1,0.1-7.8,14.5-31.1,23.9
		c-1.9,0.8-3.9,0.5-6-0.8c-4.6-2.9-8.1-9.6-8.5-14.1c-0.5-6-0.8-35,2.8-44.6c0.5-1.3,1.6-2.1,3.2-2.3c3.1-0.5,6.9,1.1,8.1,2.8
		c1.2,1.7,2.1,3.8,3,6c1.5,3.9,3.3,8.4,7.8,10.4c7.5,3.4,11.4,0.3,12.3-1.1c0.6-0.9,0.3-1.9,0.1-3.1c-0.5-2.4-0.4-3.4,0.9-4
		c0.9-0.4,1.1-0.5,2,1.5c0.5,1,1,2.2,2.2,2.6c0.9,0.3,1.9-0.1,2.9-1.1c2.4-2.3,5.2-8.3,3.4-15.3c-2.1-8.2-8.8-17.2-15.5-17.7
		c-1.9-3.1-5.3-5.1-8.9-5.1c0,0,0,0,0,0c-2,0-5.5,0.6-8.6,4.3c-2.5,0.5-5.6,2.1-8.1,6.7c-0.8,1.5-1.4,3-1.9,4.8
		c-2-1.7-4.4-2.8-6.8-2.8c0,0,0,0,0,0c-2,0-5.7,1.1-8.8,5.5c-2.2,0.8-5,2.6-7.2,6.7c-4.9,9-5.6,29.7,13.4,46.4
		c0.5,5.4,4.5,13.2,10.2,16.7c1.9,1.2,3.9,1.8,5.9,1.8c1.2,0,2.4-0.2,3.5-0.7c24.6-10,32.9-25.5,33-25.6
		C-351.2,277.8-351.7,268.3-352.9,259z M-411.3,243.1C-411.3,243.1-411.3,243.1-411.3,243.1c0.2-0.1,0.3-0.1,0.4-0.1c0,0,0,0,0,0
		c2.4,0,4.9,1.6,6.3,3.8c-2,6-2.8,17.6-3,27.7C-415.8,261.7-414.6,249-411.3,243.1z M-386.7,230.1c0.4-0.8,0.9-1.5,1.4-2.1
		c2,0.1,4,1.2,5.2,2.9c-0.7,0.6-1.5,1.2-2.3,1.8c-2.1,1.5-4.4,2.7-6.5,3.7C-388.4,234.1-387.7,231.9-386.7,230.1z M-358.4,244.3
		c1.4,5.2-0.5,9.7-1.8,11.5c-0.8-1.6-2.6-4.9-6.8-3.1c-4.3,1.9-3.4,6.3-3,8.1c0,0.2,0.1,0.4,0.1,0.6c-0.8,0.6-3.1,1.4-7.4-0.5
		c-3.2-1.4-4.5-4.8-5.9-8.4c-0.9-2.4-1.9-4.8-3.4-6.9c-1.2-1.6-3.2-2.9-5.5-3.6c0.5-0.2,1-0.5,1.6-0.7c0.3-0.1,0.5-0.2,0.7-0.3
		c2.8-1.3,6.2-3.2,9.5-5.5c1.2-0.8,2.3-1.9,3.3-2.7c2.2-1.7,4.3-3.8,5.9-3.8c0,0,0,0,0,0C-366.4,229-360.4,236.6-358.4,244.3z
		 M-379.3,225c1.8,0,3.6,0.7,4.9,1.9c-1,0.5-1.9,1.1-2.9,1.8c-1.2-1.5-2.9-2.6-4.7-3.2C-381.2,225.2-380.3,225-379.3,225
		C-379.3,225-379.3,225-379.3,225z M-392.8,233.4c0.5-0.9,1-1.7,1.6-2.4c-0.8,2.2-1.3,4.6-1.5,7.2c-0.8,0.3-1.5,0.6-2,0.8
		C-394.4,237-393.7,235-392.8,233.4z M-404.8,238c2.3,0,4.6,1.5,6.1,3.5c-1.5,0.3-2.9,0.9-3.9,1.8c-1.6-1.9-3.7-3.3-5.9-4
		C-407.3,238.5-406.1,238-404.8,238C-404.8,238-404.8,238-404.8,238z M-417.5,248c0.2-0.4,0.5-0.8,0.7-1.2c-2.8,11.3,1.9,25,9.1,34
		c0,2.3,0,4.4,0.1,6.2C-416.6,277.5-424.6,260.9-417.5,248z"/>
	<path class="st0" d="M-369.4,275.7c0,1.4,0.6,2.5,1.7,3.2c0.6,0.3,1.2,0.5,2,0.5c0.9,0,1.9-0.3,2.9-0.8c2.7-1.5,3.3-3.1,3.8-4.8
		c0.5-1.8,1.1-6.1,0.7-9.6c-0.1-1-1-1.7-2.1-1.6c-1,0.1-1.7,1-1.6,2.1c0.4,3.2-0.2,7-0.6,8.2c-0.3,1.2-0.5,1.7-2,2.6
		c-0.5,0.3-0.9,0.4-1.1,0.4c0-0.6,0.1-1.4,0.2-2.3c0.2-1.5,0.5-3.3,0.4-5.5c0-1-0.9-1.8-1.9-1.8c-1,0-1.8,0.9-1.8,1.9
		c0.1,1.8-0.2,3.4-0.3,4.8C-369.2,273.9-369.4,274.8-369.4,275.7z"/>
	<path class="st0" d="M-383.5,302.5c0.3,0.2,0.7,0.3,1,0.3c0.6,0,1.2-0.3,1.5-0.8c3.9-5.8,4.7-16.7,2.5-35.1c-0.1-1-1-1.7-2.1-1.6
		c-1,0.1-1.7,1-1.6,2.1c0.8,6.3,3.1,25.3-1.9,32.6C-384.5,300.8-384.3,301.9-383.5,302.5z"/>
</g>
</svg>
