<?xml version="1.0" encoding="utf-8"?>
<!-- Generator: Adobe Illustrator 19.0.0, SVG Export Plug-In . SVG Version: 6.00 Build 0)  -->
<svg version="1.1" id="Layer_1" xmlns="http://www.w3.org/2000/svg" xmlns:xlink="http://www.w3.org/1999/xlink" x="0px" y="0px"
	 viewBox="-429 218 80 97" style="enable-background:new -429 218 80 97;" xml:space="preserve">
<style type="text/css">
	.st0{fill:#9E1F63;}
</style>
<g>
	<path class="st0" d="M-390.5,221c-1.4,0-2.5,1.1-2.5,2.5v25c0,4.1-3.4,7.5-7.5,7.5c-1.4,0-2.5,1.1-2.5,2.5v45
		c0,1.4-1.1,2.5-2.5,2.5s-2.5-1.1-2.5-2.5v-45c0-1.4-1.1-2.5-2.5-2.5c-4.1,0-7.5-3.4-7.5-7.5v-25c0-1.4-1.1-2.5-2.5-2.5
		s-2.5,1.1-2.5,2.5v25c0,6,4.3,11.1,10,12.2v42.8c0,4.1,3.4,7.5,7.5,7.5s7.5-3.4,7.5-7.5v-42.8c5.7-1.2,10-6.2,10-12.2v-25
		C-388,222.1-389.1,221-390.5,221z"/>
	<path class="st0" d="M-410.5,246c1.4,0,2.5-1.1,2.5-2.5v-20c0-1.4-1.1-2.5-2.5-2.5s-2.5,1.1-2.5,2.5v20
		C-413,244.9-411.9,246-410.5,246z"/>
	<path class="st0" d="M-400.5,246c1.4,0,2.5-1.1,2.5-2.5v-20c0-1.4-1.1-2.5-2.5-2.5s-2.5,1.1-2.5,2.5v20
		C-403,244.9-401.9,246-400.5,246z"/>
	<path class="st0" d="M-365.5,221c-6.9,0-12.5,5.6-12.5,12.5v25c0,6,4.3,11.1,10,12.2v32.8c0,4.1,3.4,7.5,7.5,7.5s7.5-3.4,7.5-7.5
		v-70C-353,226.6-358.6,221-365.5,221z M-358,303.5c0,1.4-1.1,2.5-2.5,2.5s-2.5-1.1-2.5-2.5v-35c0-1.4-1.1-2.5-2.5-2.5
		c-4.1,0-7.5-3.4-7.5-7.5v-25c0-4.1,3.4-7.5,7.5-7.5s7.5,3.4,7.5,7.5V303.5z"/>
</g>
</svg>
