<?xml version="1.0" encoding="utf-8"?>
<!-- Generator: Adobe Illustrator 19.0.0, SVG Export Plug-In . SVG Version: 6.00 Build 0)  -->
<svg version="1.1" id="Layer_1" xmlns="http://www.w3.org/2000/svg" xmlns:xlink="http://www.w3.org/1999/xlink" x="0px" y="0px"
	 viewBox="-455 251 48 48" style="enable-background:new -455 251 48 48;" xml:space="preserve">
<style type="text/css">
	.st0{fill:#9E1F63;}
</style>
<g>
	<path class="st0" d="M-419.2,299H-454c-0.6,0-1-0.4-1-1v-24c0-0.4,0.2-0.7,0.6-0.9l22.8-10.3c0.2-0.1,0.5-0.1,0.7,0l12,4.2
		c0.4,0.1,0.7,0.5,0.7,0.9V298C-418.2,298.6-418.6,299-419.2,299z M-453,297h32.8v-28.4l-11-3.8l-21.8,9.8V297z"/>
	<path class="st0" d="M-431.3,299c-0.6,0-1-0.4-1-1v-33.5c0-0.6,0.4-1,1-1c0.6,0,1,0.4,1,1V298C-430.3,298.6-430.7,299-431.3,299z"
		/>
	<g>
		<path class="st0" d="M-450.5,279c-0.4,0-0.8-0.3-1-0.7c-0.2-0.5,0.1-1.1,0.7-1.3l14.2-4.4c0.5-0.2,1.1,0.1,1.3,0.7
			c0.2,0.5-0.1,1.1-0.7,1.3l-14.2,4.4C-450.3,279-450.4,279-450.5,279z"/>
		<path class="st0" d="M-450.5,284.3c-0.5,0-0.9-0.3-1-0.8s0.2-1.1,0.8-1.2l14.2-3c0.5-0.1,1.1,0.2,1.2,0.8c0.1,0.5-0.2,1.1-0.8,1.2
			l-14.2,3C-450.4,284.3-450.4,284.3-450.5,284.3z"/>
		<path class="st0" d="M-450.5,289.5c-0.5,0-0.9-0.4-1-0.9s0.3-1,0.9-1.1l14.2-1.5c0.5-0.1,1,0.3,1.1,0.9c0.1,0.5-0.3,1-0.9,1.1
			l-14.2,1.5H-450.5z"/>
		<path class="st0" d="M-436.3,294.8h-14.2c-0.6,0-1-0.4-1-1c0-0.6,0.4-1,1-1h14.2c0.6,0,1,0.4,1,1
			C-435.3,294.4-435.7,294.8-436.3,294.8z"/>
	</g>
	<path class="st0" d="M-408,299h-15.3c-0.6,0-1-0.4-1-1s0.4-1,1-1h14.3v-39.5l-13.6-4.4l-13,5.8v6.7c0,0.6-0.4,1-1,1s-1-0.4-1-1
		v-7.4c0-0.4,0.2-0.8,0.6-0.9l13.9-6.2c0.2-0.1,0.5-0.1,0.7-0.1l14.7,4.8c0.4,0.2,0.7,0.6,0.7,1V298C-407,298.6-407.4,299-408,299z"
		/>
	<path class="st0" d="M-414,264.7c-0.6,0-1-0.4-1-1v-3.9c0-0.6,0.4-1,1-1s1,0.4,1,1v3.9C-413,264.3-413.4,264.7-414,264.7z"/>
	<path class="st0" d="M-414,271.7c-0.6,0-1-0.4-1-1v-3.9c0-0.6,0.4-1,1-1s1,0.4,1,1v3.9C-413,271.3-413.4,271.7-414,271.7z"/>
	<path class="st0" d="M-414,278.8c-0.6,0-1-0.4-1-1v-4c0-0.6,0.4-1,1-1s1,0.4,1,1v4C-413,278.4-413.4,278.8-414,278.8z"/>
	<path class="st0" d="M-414,285.8c-0.6,0-1-0.4-1-1v-3.9c0-0.6,0.4-1,1-1s1,0.4,1,1v3.9C-413,285.4-413.4,285.8-414,285.8z"/>
	<path class="st0" d="M-414,292.8c-0.6,0-1-0.4-1-1v-3.9c0-0.6,0.4-1,1-1s1,0.4,1,1v3.9C-413,292.4-413.4,292.8-414,292.8z"/>
</g>
</svg>
