<?xml version="1.0" encoding="utf-8"?>
<!-- Generator: Adobe Illustrator 19.0.0, SVG Export Plug-In . SVG Version: 6.00 Build 0)  -->
<svg version="1.1" id="Isolation_Mode" xmlns="http://www.w3.org/2000/svg" xmlns:xlink="http://www.w3.org/1999/xlink" x="0px"
	 y="0px" viewBox="-247 358.9 75.7 64.9" style="enable-background:new -247 358.9 75.7 64.9;" xml:space="preserve">
<style type="text/css">
	.st0{fill:#252525;}
</style>
<g>
	<path class="st0" d="M-198.4,359.9h-21.7c-14,0-25.4,11.4-25.4,25.4c0,10.6,6.5,20,16.3,23.7v10.3c0,1.5,1.2,2.7,2.7,2.7
		c0.7,0,1.4-0.3,1.9-0.8l10.5-10.5h15.6c14,0,25.5-11.4,25.5-25.4S-184.4,359.9-198.4,359.9z M-198.5,407.8h-16.2
		c-0.4,0-0.8,0.1-1.1,0.4l-10.4,10.4v-10.7c0-0.6-0.4-1.2-1-1.4c-9.1-3-15.3-11.6-15.3-21.2c0-12.4,10-22.4,22.3-22.3h21.7
		c12.4,0,22.4,10,22.4,22.4S-186.2,407.8-198.5,407.8z"/>
	<circle class="st0" cx="-209.1" cy="385.7" r="3.2"/>
	<circle class="st0" cx="-221.8" cy="385.7" r="3.2"/>
	<circle class="st0" cx="-196.3" cy="385.7" r="3.2"/>
</g>
</svg>
