<?xml version="1.0" encoding="utf-8"?>
<!-- Generator: Adobe Illustrator 19.0.0, SVG Export Plug-In . SVG Version: 6.00 Build 0)  -->
<svg version="1.1" id="Layer_1" xmlns="http://www.w3.org/2000/svg" xmlns:xlink="http://www.w3.org/1999/xlink" x="0px" y="0px"
	 viewBox="0 0 45 43" style="enable-background:new 0 0 45 43;" xml:space="preserve">
<style type="text/css">
	.st0{fill:#FFFFFF;}
</style>
<g>
	<polygon class="st0" points="39.7,38.1 39,38.1 39,38.5 40.1,38.5 40.1,37.5 39.7,37.5 	"/>
	<rect x="35.6" y="38.1" class="st0" width="1.7" height="0.4"/>
	<rect x="11.8" y="38.1" class="st0" width="1.7" height="0.4"/>
	<rect x="8.3" y="38.1" class="st0" width="1.7" height="0.4"/>
	<rect x="32.2" y="38.1" class="st0" width="1.7" height="0.4"/>
	<polygon class="st0" points="6,37.5 5.6,37.5 5.6,38.5 6.6,38.5 6.6,38.1 6,38.1 	"/>
	<rect x="5.6" y="20.4" class="st0" width="0.4" height="1.7"/>
	<rect x="5.6" y="17" class="st0" width="0.4" height="1.7"/>
	<rect x="5.6" y="23.8" class="st0" width="0.4" height="1.7"/>
	<rect x="5.6" y="6.8" class="st0" width="0.4" height="1.7"/>
	<rect x="5.6" y="13.6" class="st0" width="0.4" height="1.7"/>
	<rect x="5.6" y="34.1" class="st0" width="0.4" height="1.7"/>
	<rect x="5.6" y="10.2" class="st0" width="0.4" height="1.7"/>
	<rect x="5.6" y="30.6" class="st0" width="0.4" height="1.7"/>
	<rect x="5.6" y="27.2" class="st0" width="0.4" height="1.7"/>
	<polygon class="st0" points="6,4.4 6.6,4.4 6.6,4 5.6,4 5.6,5.1 6,5.1 	"/>
	<rect x="28.8" y="4" class="st0" width="1.7" height="0.4"/>
	<rect x="32.2" y="4" class="st0" width="1.7" height="0.4"/>
	<rect x="25.4" y="4" class="st0" width="1.7" height="0.4"/>
	<rect x="18.6" y="4" class="st0" width="1.7" height="0.4"/>
	<rect x="11.8" y="4" class="st0" width="1.7" height="0.4"/>
	<rect x="22" y="4" class="st0" width="1.7" height="0.4"/>
	<rect x="15.2" y="4" class="st0" width="1.7" height="0.4"/>
	<rect x="8.3" y="4" class="st0" width="1.7" height="0.4"/>
	<rect x="35.6" y="4" class="st0" width="1.7" height="0.4"/>
	<polygon class="st0" points="39.7,5.1 40.1,5.1 40.1,4 39,4 39,4.4 39.7,4.4 	"/>
	<rect x="39.7" y="6.8" class="st0" width="0.4" height="1.7"/>
	<rect x="39.7" y="27.2" class="st0" width="0.4" height="1.7"/>
	<rect x="39.7" y="23.8" class="st0" width="0.4" height="1.7"/>
	<rect x="39.7" y="34.1" class="st0" width="0.4" height="1.7"/>
	<rect x="39.7" y="30.7" class="st0" width="0.4" height="1.7"/>
	<rect x="39.7" y="10.2" class="st0" width="0.4" height="1.7"/>
	<rect x="39.7" y="17" class="st0" width="0.4" height="1.7"/>
	<rect x="39.7" y="13.6" class="st0" width="0.4" height="1.7"/>
	<rect x="39.7" y="20.4" class="st0" width="0.4" height="1.7"/>
	<path class="st0" d="M12.3,15.2c0,0.7-0.3,0.9-0.8,0.9c-0.5,0-0.8-0.3-0.8-0.9V7.7H9.2v7.4c0,1.6,0.8,2.4,2.3,2.4
		c1.5,0,2.3-0.9,2.3-2.4V7.7h-1.4V15.2z"/>
	<path class="st0" d="M15.2,17.4h1.5v-3.7h0.7c1.5,0,2.3-0.8,2.3-2.4v-1.3c0-1.6-0.8-2.4-2.3-2.4h-2.3V17.4z M16.7,9.1h0.7
		c0.5,0,0.8,0.2,0.8,0.9v1.5c0,0.7-0.3,0.9-0.8,0.9h-0.7V9.1z"/>
	<path class="st0" d="M22.4,13.8h0.7c1.5,0,2.3-0.8,2.3-2.4v-1.3c0-1.6-0.8-2.4-2.3-2.4h-2.3v9.7h1.5V13.8z M22.4,9.1h0.7
		c0.5,0,0.8,0.2,0.8,0.9v1.5c0,0.7-0.3,0.9-0.8,0.9h-0.7V9.1z"/>
	<polygon class="st0" points="30.6,9.1 30.6,7.7 26.5,7.7 26.5,17.4 30.6,17.4 30.6,16 28,16 28,13.2 30.1,13.2 30.1,11.8 28,11.8 
		28,9.1 	"/>
	<path class="st0" d="M36.5,16.2v-1.5c0-1-0.3-1.8-1-2.1c0.7-0.3,1-1,1-2V9.9c0-1.5-0.7-2.2-2.3-2.2h-2.3v9.7h1.5v-4H34
		c0.7,0,1,0.3,1,1.2v1.5c0,0.8,0.1,0.9,0.1,1.2h1.6C36.5,17.1,36.5,16.7,36.5,16.2z M35,11c0,0.8-0.3,1-0.9,1h-0.6v-3h0.7
		c0.5,0,0.8,0.3,0.8,1V11z"/>
	<path class="st0" d="M16.2,29.1c0-0.3-0.2-0.4-0.6-0.4h-0.3v0.9h0.4C16.1,29.5,16.2,29.4,16.2,29.1z"/>
	<path class="st0" d="M19.8,30.2c0-0.3-0.2-0.4-0.5-0.4h-0.4v0.8h0.4C19.6,30.6,19.8,30.4,19.8,30.2z"/>
	<polygon class="st0" points="27.2,28.8 27.2,28.8 26.8,29.9 27.6,29.9 	"/>
	<path class="st0" d="M19.6,29c0-0.3-0.2-0.4-0.5-0.4h-0.3v0.7h0.3C19.5,29.4,19.6,29.2,19.6,29z"/>
	<path class="st0" d="M25.2,29.1c0-0.3-0.2-0.4-0.6-0.4h-0.3v0.9h0.4C25,29.5,25.2,29.4,25.2,29.1z"/>
	<path class="st0" d="M13.9,38.5h17.8V20.7H13.9V38.5z M29.8,28.2c0.6,0,1.1,0.4,1.1,1.4c0,0.9-0.5,1.4-1.2,1.4
		c-0.7,0-1.1-0.5-1.1-1.4C28.6,28.6,29.2,28.2,29.8,28.2z M27,27.6c0.2,0,0.4,0.1,0.5,0.1c0.1,0,0.2,0,0.3-0.1l0,0.3
		c-0.1,0-0.2,0.1-0.3,0.1c-0.2,0-0.4-0.1-0.6-0.1c-0.1,0-0.2,0-0.3,0.1l0-0.3C26.7,27.6,26.8,27.6,27,27.6z M26.9,28.3h0.6l1,2.7
		h-0.5l-0.2-0.7h-0.9L26.5,31H26L26.9,28.3z M23.8,28.3h0.9c0.6,0,1,0.2,1,0.7c0,0.4-0.2,0.6-0.5,0.7c0.1,0,0.2,0.1,0.2,0.2l0.4,1
		h-0.5L25,30.1c-0.1-0.1-0.1-0.2-0.3-0.2h-0.4V31h-0.5V28.3z M22.8,28.3h0.5V31h-0.5V28.3z M20.7,28.3h1.6v0.4h-1.1v0.7h1v0.4h-1
		v0.7h1.2V31h-1.7V28.3z M18.4,28.3h0.9c0.5,0,0.9,0.1,0.9,0.7c0,0.3-0.2,0.5-0.4,0.6c0.3,0.1,0.5,0.3,0.5,0.6c0,0.5-0.4,0.8-1,0.8
		h-0.9V28.3z M17.3,28.3h0.5V31h-0.5V28.3z M14.9,28.3h0.9c0.6,0,1,0.2,1,0.7c0,0.4-0.2,0.6-0.5,0.7c0.1,0,0.2,0.1,0.2,0.2l0.4,1
		h-0.5L16,30.1c-0.1-0.1-0.1-0.2-0.3-0.2h-0.4V31h-0.5V28.3z"/>
	<path class="st0" d="M29.8,30.6c0.5,0,0.6-0.5,0.6-1c0-0.4-0.1-1-0.6-1c-0.5,0-0.7,0.5-0.7,1C29.1,30.1,29.2,30.6,29.8,30.6z"/>
</g>
</svg>
